<svg width="22" height="18" viewBox="0 0 22 18" fill="none" xmlns="http://www.w3.org/2000/svg">
<path d="M19.9305 9.41129C21.9168 7.42496 21.9168 4.20817 19.9305 2.22184C18.1727 0.464025 15.4024 0.235509 13.3809 1.68043L13.3247 1.7191C12.8184 2.08121 12.7024 2.78434 13.0645 3.28707C13.4266 3.78981 14.1297 3.90934 14.6325 3.54723L14.6887 3.50856C15.8172 2.70348 17.3606 2.83004 18.3379 3.8109C19.4454 4.91832 19.4454 6.71129 18.3379 7.81871L14.3934 11.7703C13.286 12.8777 11.493 12.8777 10.3856 11.7703C9.40474 10.7894 9.27817 9.24606 10.0833 8.12106L10.1219 8.06481C10.484 7.55856 10.3645 6.85543 9.86177 6.49684C9.35903 6.13824 8.65239 6.25426 8.2938 6.75699L8.25513 6.81324C6.80669 8.83121 7.03521 11.6015 8.79302 13.3593C10.7793 15.3457 13.9961 15.3457 15.9825 13.3593L19.9305 9.41129ZM1.66333 8.58863C-0.322998 10.575 -0.322998 13.7918 1.66333 15.7781C3.42114 17.5359 6.19146 17.7644 8.21294 16.3195L8.26919 16.2808C8.77544 15.9187 8.89146 15.2156 8.52935 14.7129C8.16724 14.2101 7.46411 14.0906 6.96138 14.4527L6.90513 14.4914C5.77661 15.2964 4.23325 15.1699 3.25591 14.189C2.14849 13.0781 2.14849 11.2851 3.25591 10.1777L7.20044 6.22965C8.30786 5.12223 10.1008 5.12223 11.2083 6.22965C12.1891 7.21051 12.3157 8.75387 11.5106 9.88238L11.4719 9.93863C11.1098 10.4449 11.2293 11.148 11.7321 11.5066C12.2348 11.8652 12.9415 11.7492 13.3 11.2464L13.3387 11.1902C14.7872 9.16871 14.5586 6.3984 12.8008 4.64059C10.8145 2.65426 7.59771 2.65426 5.61138 4.64059L1.66333 8.58863Z" fill="white"/>
</svg>
