<svg width="155" height="45" viewBox="0 0 155 45" fill="none" xmlns="http://www.w3.org/2000/svg">
<path d="M30.4247 21.2281C30.6219 21.2281 30.772 21.0909 30.802 20.8851C31.2608 17.0863 31.7324 16.6061 35.454 16.2245C35.6598 16.2031 35.8099 16.0445 35.8099 15.8472C35.8099 15.6457 35.6598 15.4871 35.454 15.4699C31.7324 15.084 31.2608 14.6081 30.802 10.8093C30.772 10.5992 30.6219 10.462 30.4247 10.462C30.2317 10.462 30.0774 10.5992 30.0431 10.8093C29.5886 14.6081 29.1127 15.084 25.3954 15.4699C25.1853 15.4871 25.0352 15.6457 25.0352 15.8472C25.0352 16.0445 25.1853 16.1988 25.3954 16.2245C29.1041 16.7005 29.5543 17.082 30.0431 20.8851C30.0774 21.0909 30.2317 21.2281 30.4247 21.2281Z" fill="#F5F7FA"/>
<path d="M22.5 0C32.9641 0 41.46 7.74528 43.9706 17.4342C44.0222 17.6331 43.9865 17.8444 43.8756 18.0173L42.2513 20.5491C40.8527 22.4993 39.1306 24.4231 37.0193 25.8894C33.8637 28.0808 29.8804 29.2217 25.0061 28.0031C20.5703 26.8941 17.085 26.2507 13.857 26.6859C10.8729 27.0883 7.07696 28.4824 4.84519 31.8656C4.78772 31.9527 4.78149 32.0647 4.82809 32.1581C8.04646 38.6075 14.4792 42.4648 22.5 42.4648C33.9323 42.4648 42.4648 34.2492 42.4648 22.8169C42.471 23.0335 42.4648 22.5982 42.4648 22.8169L44.5808 19.1894C44.6159 19.1293 44.7068 19.1456 44.7189 19.2142C44.9295 20.4107 45 21.1899 45 22.5C45 34.9264 34.9264 45 22.5 45C12.9157 45 5.23507 40.064 2.00317 31.6435C1.938 31.4737 1.95584 31.2825 2.04942 31.1266L3.56874 28.5944C3.7239 28.3357 3.91652 28.1006 4.14528 27.9041C7.34026 25.1592 10.142 24.3093 13.4757 23.8598C17.2988 23.3444 21.2608 24.127 25.6981 25.2364C29.6969 26.236 32.8441 25.3171 35.3927 23.5473C37.793 21.8804 39.9265 19.239 41.4543 16.7813C41.5653 16.6029 41.5938 16.3847 41.5318 16.184C39.0252 8.06434 31.7026 2.53521 22.5 2.53521C11.0677 2.53521 2.53521 11.0677 2.53521 22.5C2.53521 24.4036 2.53521 25.3164 2.83401 27.1439C2.84551 27.2142 2.83197 27.2871 2.79528 27.3482L1.11878 30.1424C1.0528 30.2524 0.889447 30.2343 0.852711 30.1115C0.191812 27.901 0 24.8653 0 22.5C0 10.0736 10.0736 0 22.5 0Z" fill="url(#paint0_linear_30_7)"/>
<path d="M64.952 34.32C63.2027 34.32 61.528 34.0747 59.928 33.584C58.328 33.072 57.0587 32.4213 56.12 31.632L57.56 28.4C58.456 29.104 59.5653 29.6907 60.888 30.16C62.2107 30.6293 63.5653 30.864 64.952 30.864C66.1253 30.864 67.0747 30.736 67.8 30.48C68.5253 30.224 69.0587 29.8827 69.4 29.456C69.7413 29.008 69.912 28.5067 69.912 27.952C69.912 27.2693 69.6667 26.7253 69.176 26.32C68.6853 25.8933 68.0453 25.5627 67.256 25.328C66.488 25.072 65.624 24.8373 64.664 24.624C63.7253 24.4107 62.776 24.1653 61.816 23.888C60.8773 23.5893 60.0133 23.216 59.224 22.768C58.456 22.2987 57.8267 21.68 57.336 20.912C56.8453 20.144 56.6 19.1627 56.6 17.968C56.6 16.752 56.92 15.6427 57.56 14.64C58.2213 13.616 59.2133 12.8053 60.536 12.208C61.88 11.5893 63.576 11.28 65.624 11.28C66.968 11.28 68.3013 11.4507 69.624 11.792C70.9467 12.1333 72.0987 12.624 73.08 13.264L71.768 16.496C70.7653 15.8987 69.7307 15.4613 68.664 15.184C67.5973 14.8853 66.5733 14.736 65.592 14.736C64.44 14.736 63.5013 14.8747 62.776 15.152C62.072 15.4293 61.5493 15.792 61.208 16.24C60.888 16.688 60.728 17.2 60.728 17.776C60.728 18.4587 60.9627 19.0133 61.432 19.44C61.9227 19.8453 62.552 20.1653 63.32 20.4C64.1093 20.6347 64.984 20.8693 65.944 21.104C66.904 21.3173 67.8533 21.5627 68.792 21.84C69.752 22.1173 70.616 22.48 71.384 22.928C72.1733 23.376 72.8027 23.984 73.272 24.752C73.7627 25.52 74.008 26.4907 74.008 27.664C74.008 28.8587 73.6773 29.968 73.016 30.992C72.376 31.9947 71.384 32.8053 70.04 33.424C68.696 34.0213 67 34.32 64.952 34.32ZM84.181 34.224C82.3037 34.224 80.853 33.744 79.829 32.784C78.805 31.8027 78.293 30.3627 78.293 28.464V13.136H82.293V28.368C82.293 29.1787 82.4957 29.808 82.901 30.256C83.3277 30.704 83.9143 30.928 84.661 30.928C85.557 30.928 86.3037 30.6933 86.901 30.224L88.021 33.072C87.5517 33.456 86.9757 33.744 86.293 33.936C85.6103 34.128 84.9063 34.224 84.181 34.224ZM75.477 20.24V17.04H86.869V20.24H75.477ZM98.781 34.224C96.8823 34.224 95.2183 33.8507 93.789 33.104C92.381 32.336 91.2823 31.2907 90.493 29.968C89.725 28.6453 89.341 27.1413 89.341 25.456C89.341 23.7493 89.7143 22.2453 90.461 20.944C91.229 19.6213 92.2743 18.5867 93.597 17.84C94.941 17.0933 96.4663 16.72 98.173 16.72C99.837 16.72 101.32 17.0827 102.621 17.808C103.922 18.5333 104.946 19.5573 105.693 20.88C106.44 22.2027 106.813 23.76 106.813 25.552C106.813 25.7227 106.802 25.9147 106.781 26.128C106.781 26.3413 106.77 26.544 106.749 26.736H92.509V24.08H104.637L103.069 24.912C103.09 23.9307 102.888 23.0667 102.461 22.32C102.034 21.5733 101.448 20.9867 100.701 20.56C99.9757 20.1333 99.133 19.92 98.173 19.92C97.1917 19.92 96.3277 20.1333 95.581 20.56C94.8557 20.9867 94.2797 21.584 93.853 22.352C93.4477 23.0987 93.245 23.984 93.245 25.008V25.648C93.245 26.672 93.4797 27.5787 93.949 28.368C94.4183 29.1573 95.0797 29.7653 95.933 30.192C96.7863 30.6187 97.7677 30.832 98.877 30.832C99.837 30.832 100.701 30.6827 101.469 30.384C102.237 30.0853 102.92 29.616 103.517 28.976L105.661 31.44C104.893 32.336 103.922 33.0293 102.749 33.52C101.597 33.9893 100.274 34.224 98.781 34.224ZM110.655 34V10.256H114.655V34H110.655ZM119.905 34V10.256H123.905V34H119.905ZM129.155 34V16.912H133.155V34H129.155ZM131.171 14.096C130.425 14.096 129.806 13.8613 129.315 13.392C128.846 12.9227 128.611 12.3573 128.611 11.696C128.611 11.0133 128.846 10.448 129.315 10C129.806 9.53067 130.425 9.296 131.171 9.296C131.918 9.296 132.526 9.52 132.995 9.968C133.486 10.3947 133.731 10.9387 133.731 11.6C133.731 12.304 133.497 12.9013 133.027 13.392C132.558 13.8613 131.939 14.096 131.171 14.096ZM136.069 34L143.589 24.208L143.525 26.352L136.357 16.912H140.805L145.829 23.632H144.133L149.189 16.912H153.509L146.277 26.352L146.309 24.208L153.797 34H149.285L144.005 26.864L145.669 27.088L140.485 34H136.069Z" fill="white"/>
<defs>
<linearGradient id="paint0_linear_30_7" x1="43.7324" y1="16.4789" x2="2.85211" y2="32.007" gradientUnits="userSpaceOnUse">
<stop stop-color="#3068BF"/>
<stop offset="1" stop-color="#31BCAD"/>
</linearGradient>
</defs>
</svg>
