<svg width="45" height="45" viewBox="0 0 45 45" fill="none" xmlns="http://www.w3.org/2000/svg">
<path d="M30.4247 21.2281C30.6219 21.2281 30.772 21.0909 30.802 20.8851C31.2608 17.0863 31.7324 16.6061 35.454 16.2245C35.6598 16.2031 35.8099 16.0445 35.8099 15.8472C35.8099 15.6457 35.6598 15.4871 35.454 15.4699C31.7324 15.084 31.2608 14.6081 30.802 10.8093C30.772 10.5992 30.6219 10.462 30.4247 10.462C30.2317 10.462 30.0774 10.5992 30.0431 10.8093C29.5886 14.6081 29.1127 15.084 25.3954 15.4699C25.1853 15.4871 25.0352 15.6457 25.0352 15.8472C25.0352 16.0445 25.1853 16.1988 25.3954 16.2245C29.1041 16.7005 29.5543 17.082 30.0431 20.8851C30.0774 21.0909 30.2317 21.2281 30.4247 21.2281Z" fill="#F5F7FA"/>
<path d="M22.5 0C32.9641 0 41.46 7.74528 43.9706 17.4342C44.0222 17.6331 43.9865 17.8444 43.8756 18.0173L42.2513 20.5491C40.8527 22.4993 39.1306 24.4231 37.0193 25.8894C33.8637 28.0808 29.8804 29.2217 25.0061 28.0031C20.5703 26.8941 17.085 26.2507 13.857 26.6859C10.8729 27.0883 7.07696 28.4824 4.84519 31.8656C4.78772 31.9527 4.78149 32.0647 4.82809 32.1581C8.04646 38.6075 14.4792 42.4648 22.5 42.4648C33.9323 42.4648 42.4648 34.2492 42.4648 22.8169C42.471 23.0335 42.4648 22.5982 42.4648 22.8169L44.5808 19.1894C44.6159 19.1293 44.7068 19.1456 44.7189 19.2142C44.9295 20.4107 45 21.1899 45 22.5C45 34.9264 34.9264 45 22.5 45C12.9157 45 5.23507 40.064 2.00317 31.6435C1.938 31.4737 1.95584 31.2825 2.04942 31.1266L3.56874 28.5944C3.7239 28.3357 3.91652 28.1006 4.14528 27.9041C7.34026 25.1592 10.142 24.3093 13.4757 23.8598C17.2988 23.3444 21.2608 24.127 25.6981 25.2364C29.6969 26.236 32.8441 25.3171 35.3927 23.5473C37.793 21.8804 39.9265 19.239 41.4543 16.7813C41.5653 16.6029 41.5938 16.3847 41.5318 16.184C39.0252 8.06434 31.7026 2.53521 22.5 2.53521C11.0677 2.53521 2.53521 11.0677 2.53521 22.5C2.53521 24.4036 2.53521 25.3164 2.83401 27.1439C2.84551 27.2142 2.83197 27.2871 2.79528 27.3482L1.11878 30.1424C1.0528 30.2524 0.889447 30.2343 0.852711 30.1115C0.191812 27.901 0 24.8653 0 22.5C0 10.0736 10.0736 0 22.5 0Z" fill="url(#paint0_linear_25_16)"/>
<defs>
<linearGradient id="paint0_linear_25_16" x1="43.7324" y1="16.4789" x2="2.85211" y2="32.007" gradientUnits="userSpaceOnUse">
<stop stop-color="#3068BF"/>
<stop offset="1" stop-color="#31BCAD"/>
</linearGradient>
</defs>
</svg>
