<svg width="15" height="15" viewBox="0 0 15 15" fill="none" xmlns="http://www.w3.org/2000/svg">
<g clip-path="url(#clip0_29_161)">
<path d="M0.932422 1.79453C0.858594 1.68516 0.820312 1.55391 0.820312 1.42266C0.820312 1.05078 1.12109 0.75 1.49297 0.75H4.48164C4.78789 0.75 5.075 0.911328 5.23086 1.17383L7.10391 4.29375C5.78594 4.46055 4.60742 5.07578 3.72969 5.98633L0.932422 1.79453ZM14.7055 1.79453L11.9109 5.98633C11.0332 5.07578 9.85469 4.46055 8.53672 4.29375L10.4098 1.17383C10.5684 0.911328 10.8527 0.75 11.159 0.75H14.1477C14.5195 0.75 14.8203 1.05078 14.8203 1.42266C14.8203 1.55391 14.782 1.68516 14.7082 1.79453H14.7055ZM3.00781 9.9375C3.00781 8.66115 3.51484 7.43707 4.41736 6.53455C5.31988 5.63203 6.54396 5.125 7.82031 5.125C9.09667 5.125 10.3207 5.63203 11.2233 6.53455C12.1258 7.43707 12.6328 8.66115 12.6328 9.9375C12.6328 11.2139 12.1258 12.4379 11.2233 13.3405C10.3207 14.243 9.09667 14.75 7.82031 14.75C6.54396 14.75 5.31988 14.243 4.41736 13.3405C3.51484 12.4379 3.00781 11.2139 3.00781 9.9375ZM8.05 7.34258C7.95703 7.15117 7.68633 7.15117 7.59063 7.34258L6.97813 8.58398C6.93984 8.66055 6.86875 8.7125 6.78672 8.72344L5.41406 8.92305C5.20352 8.95312 5.12148 9.21016 5.27187 9.36055L6.26445 10.3285C6.32461 10.3887 6.35195 10.4707 6.33828 10.5555L6.10313 11.9199C6.06758 12.1277 6.28633 12.2891 6.475 12.1906L7.7 11.5453C7.77383 11.507 7.86406 11.507 7.93789 11.5453L9.16289 12.1906C9.35156 12.2891 9.57031 12.1305 9.53477 11.9199L9.29961 10.5555C9.28594 10.4734 9.31328 10.3887 9.37344 10.3285L10.366 9.36055C10.5191 9.21289 10.4344 8.95586 10.2238 8.92305L8.85391 8.72344C8.77187 8.7125 8.69805 8.65781 8.6625 8.58398L8.05 7.34258Z" fill="#31BCAD"/>
</g>
<defs>
<clipPath id="clip0_29_161">
<path d="M0.820312 0.75H14.8203V14.75H0.820312V0.75Z" fill="white"/>
</clipPath>
</defs>
</svg>
