<svg width="21" height="21" viewBox="0 0 21 21" fill="none" xmlns="http://www.w3.org/2000/svg">
<path d="M8 2H4C3.47005 2.00158 2.96227 2.2128 2.58753 2.58753C2.2128 2.96227 2.00158 3.47005 2 4V8C2.00158 8.52995 2.2128 9.03773 2.58753 9.41247C2.96227 9.7872 3.47005 9.99842 4 10H8C8.52995 9.99842 9.03773 9.7872 9.41247 9.41247C9.7872 9.03773 9.99842 8.52995 10 8V4C9.99842 3.47005 9.7872 2.96227 9.41247 2.58753C9.03773 2.2128 8.52995 2.00158 8 2ZM8 8H4V4H8V8ZM8 11H4C3.47005 11.0016 2.96227 11.2128 2.58753 11.5875C2.2128 11.9623 2.00158 12.4701 2 13V17C2.00158 17.5299 2.2128 18.0377 2.58753 18.4125C2.96227 18.7872 3.47005 18.9984 4 19H8C8.52995 18.9984 9.03773 18.7872 9.41247 18.4125C9.7872 18.0377 9.99842 17.5299 10 17V13C9.99842 12.4701 9.7872 11.9623 9.41247 11.5875C9.03773 11.2128 8.52995 11.0016 8 11ZM8 17H4V13H8V17ZM17 2H13C12.4701 2.00158 11.9623 2.2128 11.5875 2.58753C11.2128 2.96227 11.0016 3.47005 11 4V8C11.0016 8.52995 11.2128 9.03773 11.5875 9.41247C11.9623 9.7872 12.4701 9.99842 13 10H17C17.5299 9.99842 18.0377 9.7872 18.4125 9.41247C18.7872 9.03773 18.9984 8.52995 19 8V4C18.9984 3.47005 18.7872 2.96227 18.4125 2.58753C18.0377 2.2128 17.5299 2.00158 17 2ZM17 8H13V4H17V8ZM5.5 7H6.5C6.62968 6.99112 6.75177 6.93559 6.84368 6.84368C6.93559 6.75177 6.99112 6.62968 7 6.5V5.5C6.99112 5.37032 6.93559 5.24823 6.84368 5.15632C6.75177 5.06441 6.62968 5.00888 6.5 5H5.5C5.37032 5.00888 5.24823 5.06441 5.15632 5.15632C5.06441 5.24823 5.00888 5.37032 5 5.5V6.5C5.00888 6.62968 5.06441 6.75177 5.15632 6.84368C5.24823 6.93559 5.37032 6.99112 5.5 7ZM5.5 16H6.5C6.62968 15.9911 6.75177 15.9356 6.84368 15.8437C6.93559 15.7518 6.99112 15.6297 7 15.5V14.5C6.99112 14.3703 6.93559 14.2482 6.84368 14.1563C6.75177 14.0644 6.62968 14.0089 6.5 14H5.5C5.37032 14.0089 5.24823 14.0644 5.15632 14.1563C5.06441 14.2482 5.00888 14.3703 5 14.5V15.5C5.00888 15.6297 5.06441 15.7518 5.15632 15.8437C5.24823 15.9356 5.37032 15.9911 5.5 16ZM14.5 7H15.5C15.6297 6.99112 15.7518 6.93559 15.8437 6.84368C15.9356 6.75177 15.9911 6.62968 16 6.5V5.5C15.9911 5.37032 15.9356 5.24823 15.8437 5.15632C15.7518 5.06441 15.6297 5.00888 15.5 5H14.5C14.3703 5.00888 14.2482 5.06441 14.1563 5.15632C14.0644 5.24823 14.0089 5.37032 14 5.5V6.5C14.0089 6.62968 14.0644 6.75177 14.1563 6.84368C14.2482 6.93559 14.3703 6.99112 14.5 7ZM11.5 15H12.5C12.6297 14.9911 12.7518 14.9356 12.8437 14.8437C12.9356 14.7518 12.9911 14.6297 13 14.5V13.5C13.0089 13.3703 13.0644 13.2482 13.1563 13.1563C13.2482 13.0644 13.3703 13.0089 13.5 13H14.5C14.6297 12.9911 14.7518 12.9356 14.8437 12.8437C14.9356 12.7518 14.9911 12.6297 15 12.5V11.5C14.9911 11.3703 14.9356 11.2482 14.8437 11.1563C14.7518 11.0644 14.6297 11.0089 14.5 11H11.5C11.3703 11.0089 11.2482 11.0644 11.1563 11.1563C11.0644 11.2482 11.0089 11.3703 11 11.5V14.5C11.0089 14.6297 11.0644 14.7518 11.1563 14.8437C11.2482 14.9356 11.3703 14.9911 11.5 15ZM18.5 11H17.5C17.3703 11.0089 17.2482 11.0644 17.1563 11.1563C17.0644 11.2482 17.0089 11.3703 17 11.5V14.5C17.0089 14.6297 17.0644 14.7518 17.1563 14.8437C17.2482 14.9356 17.3703 14.9911 17.5 15H18.5C18.6297 14.9911 18.7518 14.9356 18.8437 14.8437C18.9356 14.7518 18.9911 14.6297 19 14.5V11.5C18.9911 11.3703 18.9356 11.2482 18.8437 11.1563C18.7518 11.0644 18.6297 11.0089 18.5 11ZM12.5 17H11.5C11.3703 17.0089 11.2482 17.0644 11.1563 17.1563C11.0644 17.2482 11.0089 17.3703 11 17.5V18.5C11.0089 18.6297 11.0644 18.7518 11.1563 18.8437C11.2482 18.9356 11.3703 18.9911 11.5 19H12.5C12.6297 18.9911 12.7518 18.9356 12.8437 18.8437C12.9356 18.7518 12.9911 18.6297 13 18.5V17.5C12.9911 17.3703 12.9356 17.2482 12.8437 17.1563C12.7518 17.0644 12.6297 17.0089 12.5 17ZM18.5 17H17.5C17.3703 16.9911 17.2482 16.9356 17.1563 16.8437C17.0644 16.7518 17.0089 16.6297 17 16.5V15.5C16.9911 15.3703 16.9356 15.2482 16.8437 15.1563C16.7518 15.0644 16.6297 15.0089 16.5 15H13.5C13.3703 15.0089 13.2482 15.0644 13.1563 15.1563C13.0644 15.2482 13.0089 15.3703 13 15.5V16.5C13.0089 16.6297 13.0644 16.7518 13.1563 16.8437C13.2482 16.9356 13.3703 16.9911 13.5 17H14.5C14.6297 17.0089 14.7518 17.0644 14.8437 17.1563C14.9356 17.2482 14.9911 17.3703 15 17.5V18.5C15.0089 18.6297 15.0644 18.7518 15.1563 18.8437C15.2482 18.9356 15.3703 18.9911 15.5 19H18.5C18.6297 18.9911 18.7518 18.9356 18.8437 18.8437C18.9356 18.7518 18.9911 18.6297 19 18.5V17.5C18.9911 17.3703 18.9356 17.2482 18.8437 17.1563C18.7518 17.0644 18.6297 17.0089 18.5 17Z" fill="#F5F7FA"/>
</svg>
