<svg width="15" height="15" viewBox="0 0 15 15" fill="none" xmlns="http://www.w3.org/2000/svg">
<path d="M8.53125 1.375C8.53125 0.891016 8.14023 0.5 7.65625 0.5C7.17227 0.5 6.78125 0.891016 6.78125 1.375V8.01133L4.77422 6.0043C4.43242 5.6625 3.87734 5.6625 3.53555 6.0043C3.19375 6.34609 3.19375 6.90117 3.53555 7.24297L7.03555 10.743C7.37734 11.0848 7.93242 11.0848 8.27422 10.743L11.7742 7.24297C12.116 6.90117 12.116 6.34609 11.7742 6.0043C11.4324 5.6625 10.8773 5.6625 10.5355 6.0043L8.53125 8.01133V1.375ZM2.40625 10.125C1.44102 10.125 0.65625 10.9098 0.65625 11.875V12.75C0.65625 13.7152 1.44102 14.5 2.40625 14.5H12.9062C13.8715 14.5 14.6562 13.7152 14.6562 12.75V11.875C14.6562 10.9098 13.8715 10.125 12.9062 10.125H10.1309L8.89219 11.3637C8.20859 12.0473 7.10117 12.0473 6.41758 11.3637L5.18164 10.125H2.40625ZM12.4688 11.6562C12.6428 11.6562 12.8097 11.7254 12.9328 11.8485C13.0559 11.9715 13.125 12.1385 13.125 12.3125C13.125 12.4865 13.0559 12.6535 12.9328 12.7765C12.8097 12.8996 12.6428 12.9688 12.4688 12.9688C12.2947 12.9688 12.1278 12.8996 12.0047 12.7765C11.8816 12.6535 11.8125 12.4865 11.8125 12.3125C11.8125 12.1385 11.8816 11.9715 12.0047 11.8485C12.1278 11.7254 12.2947 11.6562 12.4688 11.6562Z" fill="#3068BF"/>
</svg>
