<svg width="18" height="28" viewBox="0 0 18 28" fill="none" xmlns="http://www.w3.org/2000/svg">
<path d="M18 28H0V0H18V28Z" stroke="#E5E7EB"/>
<g clip-path="url(#clip0_29_219)">
<path d="M10.125 5.375C10.125 4.75273 9.62227 4.25 9 4.25C8.37773 4.25 7.875 4.75273 7.875 5.375V13.9074L5.29453 11.327C4.85508 10.8875 4.14141 10.8875 3.70195 11.327C3.2625 11.7664 3.2625 12.4801 3.70195 12.9195L8.20195 17.4195C8.64141 17.859 9.35508 17.859 9.79453 17.4195L14.2945 12.9195C14.734 12.4801 14.734 11.7664 14.2945 11.327C13.8551 10.8875 13.1414 10.8875 12.702 11.327L10.125 13.9074V5.375ZM2.25 16.625C1.00898 16.625 0 17.634 0 18.875V20C0 21.241 1.00898 22.25 2.25 22.25H15.75C16.991 22.25 18 21.241 18 20V18.875C18 17.634 16.991 16.625 15.75 16.625H12.1816L10.5891 18.2176C9.71016 19.0965 8.28633 19.0965 7.40742 18.2176L5.81836 16.625H2.25ZM15.1875 18.5938C15.4113 18.5938 15.6259 18.6826 15.7841 18.8409C15.9424 18.9991 16.0312 19.2137 16.0312 19.4375C16.0312 19.6613 15.9424 19.8759 15.7841 20.0341C15.6259 20.1924 15.4113 20.2812 15.1875 20.2812C14.9637 20.2812 14.7491 20.1924 14.5909 20.0341C14.4326 19.8759 14.3438 19.6613 14.3438 19.4375C14.3438 19.2137 14.4326 18.9991 14.5909 18.8409C14.7491 18.6826 14.9637 18.5938 15.1875 18.5938Z" fill="#3068BF"/>
</g>
<defs>
<clipPath id="clip0_29_219">
<path d="M0 4.25H18V22.25H0V4.25Z" fill="white"/>
</clipPath>
</defs>
</svg>
